<svg xmlns="http://www.w3.org/2000/svg" width="400" height="267" viewBox="0 0 400 267">
  <metadata><?xpacket begin="﻿" id="W5M0MpCehiHzreSzNTczkc9d"?>
<x:xmpmeta xmlns:x="adobe:ns:meta/" x:xmptk="Adobe XMP Core 5.6-c140 79.160451, 2017/05/06-01:08:21        ">
   <rdf:RDF xmlns:rdf="http://www.w3.org/1999/02/22-rdf-syntax-ns#">
      <rdf:Description rdf:about=""/>
   </rdf:RDF>
</x:xmpmeta>
                                                                                                    
                                                                                                    
                                                                                                    
                                                                                                    
                                                                                                    
                                                                                                    
                                                                                                    
                                                                                                    
                                                                                                    
                                                                                                    
                                                                                                    
                                                                                                    
                                                                                                    
                                                                                                    
                                                                                                    
                                                                                                    
                                                                                                    
                                                                                                    
                                                                                                    
                                                                                                    
                           
<?xpacket end="w"?></metadata>
<defs>
    <style>
      .cls-1 {
        fill: #ec1478;
        fill-opacity: 0.37;
        fill-rule: evenodd;
      }
    </style>
  </defs>
  <path class="cls-1" d="M270.738,64.493c-1.078-39.975-24.061-72.649-54.709-52.714-10.843,7.053-16.736,20.678-27.478,27.934-9.883,6.678-22.211,7.537-33.751,7.495-23.367-.088-50.536-10.364-57.551,21.774-4.778,21.883,22.822,35.837,16.081,56.908-2.1,6.581-8.644,11.449-14.015,15.556-13.343,10.2-23.276,18.967-33.154,33.462-18.5,27.124-19.808,39.76-13.341,56.84,7.013,18.518,33.233,35.9,54.993,27.214,26.1-10.415,23.631-32.645,52.674-44.153,24.51-9.719,31.973,11.117,41.165,28.164,17.336,32.155,51.015,30.928,73.95,3.021,7.472-9.092,20.219-28.958,17.7-41.97-2.038-10.5-15.769-16.838-22.421-23.95-23.4-25.017,15.907-34.006,36.521-43.2,19.7-8.78,51.464-26.841,40.972-59.42-3.6-11.179-28.7-21.183-38.817-17.287C295.243,65.688,271.153,79.955,270.738,64.493Z"/>
</svg>
